TITLE ""
FILE "DISC1Track15.mp3" MP3
  TRACK 01 AUDIO
    TITLE "DISC1Track15_01"
    INDEX 01 00:00:00
  TRACK 02 AUDIO
    TITLE "DISC1Track15_02"
    INDEX 01 00:04:59
  TRACK 03 AUDIO
    TITLE "DISC1Track15_03"
    INDEX 01 00:05:06
  TRACK 04 AUDIO
    TITLE "DISC1Track15_04"
    INDEX 01 00:07:57
  TRACK 05 AUDIO
    TITLE "DISC1Track15_05"
    INDEX 01 00:10:19
  TRACK 06 AUDIO
    TITLE "DISC1Track15_06"
    INDEX 01 00:12:39
  TRACK 07 AUDIO
    TITLE "DISC1Track15_07"
    INDEX 01 00:12:68
  TRACK 08 AUDIO
    TITLE "DISC1Track15_08"
    INDEX 01 00:14:40
  TRACK 09 AUDIO
    TITLE "DISC1Track15_09"
    INDEX 01 00:16:72
  TRACK 10 AUDIO
    TITLE "DISC1Track15_10"
    INDEX 01 00:19:15
  TRACK 11 AUDIO
    TITLE "DISC1Track15_11"
    INDEX 01 00:19:41
  TRACK 12 AUDIO
    TITLE "DISC1Track15_12"
    INDEX 01 00:22:14
  TRACK 13 AUDIO
    TITLE "DISC1Track15_13"
    INDEX 01 00:24:58
  TRACK 14 AUDIO
    TITLE "DISC1Track15_14"
    INDEX 01 00:27:13
  TRACK 15 AUDIO
    TITLE "DISC1Track15_15"
    INDEX 01 00:27:42
  TRACK 16 AUDIO
    TITLE "DISC1Track15_16"
    INDEX 01 00:29:04
  TRACK 17 AUDIO
    TITLE "DISC1Track15_17"
    INDEX 01 00:31:34
  TRACK 18 AUDIO
    TITLE "DISC1Track15_18"
    INDEX 01 00:33:47
  TRACK 19 AUDIO
    TITLE "DISC1Track15_19"
    INDEX 01 00:34:01
  TRACK 20 AUDIO
    TITLE "DISC1Track15_20"
    INDEX 01 00:37:04
  TRACK 21 AUDIO
    TITLE "DISC1Track15_21"
    INDEX 01 00:39:48
  TRACK 22 AUDIO
    TITLE "DISC1Track15_22"
    INDEX 01 00:41:74
  TRACK 23 AUDIO
    TITLE "DISC1Track15_23"
    INDEX 01 00:42:30
  TRACK 24 AUDIO
    TITLE "DISC1Track15_24"
    INDEX 01 00:44:19
  TRACK 25 AUDIO
    TITLE "DISC1Track15_25"
    INDEX 01 00:47:29
  TRACK 26 AUDIO
    TITLE "DISC1Track15_26"
    INDEX 01 00:50:20
  TRACK 27 AUDIO
    TITLE "DISC1Track15_27"
    INDEX 01 00:50:51
  TRACK 28 AUDIO
    TITLE "DISC1Track15_28"
    INDEX 01 00:53:57
  TRACK 29 AUDIO
    TITLE "DISC1Track15_29"
    INDEX 01 00:56:05
  TRACK 30 AUDIO
    TITLE "DISC1Track15_30"
    INDEX 01 00:58:18
  TRACK 31 AUDIO
    TITLE "DISC1Track15_31"
    INDEX 01 00:58:49
  TRACK 32 AUDIO
    TITLE "DISC1Track15_32"
    INDEX 01 01:00:60
  TRACK 33 AUDIO
    TITLE "DISC1Track15_33"
    INDEX 01 01:04:55
  TRACK 34 AUDIO
    TITLE "DISC1Track15_34"
    INDEX 01 01:08:30
  TRACK 35 AUDIO
    TITLE "DISC1Track15_35"
    INDEX 01 01:08:61
  TRACK 36 AUDIO
    TITLE "DISC1Track15_36"
    INDEX 01 01:12:35
  TRACK 37 AUDIO
    TITLE "DISC1Track15_37"
    INDEX 01 01:15:43
  TRACK 38 AUDIO
    TITLE "DISC1Track15_38"
    INDEX 01 01:18:46
  TRACK 39 AUDIO
    TITLE "DISC1Track15_39"
    INDEX 01 01:18:73
  TRACK 40 AUDIO
    TITLE "DISC1Track15_40"
    INDEX 01 01:20:43
  TRACK 41 AUDIO
    TITLE "DISC1Track15_41"
    INDEX 01 01:23:02
  TRACK 42 AUDIO
    TITLE "DISC1Track15_42"
    INDEX 01 01:25:22
  TRACK 43 AUDIO
    TITLE "DISC1Track15_43"
    INDEX 01 01:25:48
  TRACK 44 AUDIO
    TITLE "DISC1Track15_44"
    INDEX 01 01:28:56
  TRACK 45 AUDIO
    TITLE "DISC1Track15_45"
    INDEX 01 01:31:19
  TRACK 46 AUDIO
    TITLE "DISC1Track15_46"
    INDEX 01 01:33:37
  TRACK 47 AUDIO
    TITLE "DISC1Track15_47"
    INDEX 01 01:33:69
  TRACK 48 AUDIO
    TITLE "DISC1Track15_48"
    INDEX 01 01:36:59
  TRACK 49 AUDIO
    TITLE "DISC1Track15_49"
    INDEX 01 01:39:24
  TRACK 50 AUDIO
    TITLE "DISC1Track15_50"
    INDEX 01 01:41:49
  TRACK 51 AUDIO
    TITLE "DISC1Track15_51"
    INDEX 01 01:42:05
  TRACK 52 AUDIO
    TITLE "DISC1Track15_52"
    INDEX 01 01:44:27
  TRACK 53 AUDIO
    TITLE "DISC1Track15_53"
    INDEX 01 01:47:16
  TRACK 54 AUDIO
    TITLE "DISC1Track15_54"
    INDEX 01 01:49:70
  TRACK 55 AUDIO
    TITLE "DISC1Track15_55"
    INDEX 01 01:50:26
  TRACK 56 AUDIO
    TITLE "DISC1Track15_56"
    INDEX 01 01:53:58
  TRACK 57 AUDIO
    TITLE "DISC1Track15_57"
    INDEX 01 01:56:66
  TRACK 58 AUDIO
    TITLE "DISC1Track15_58"
    INDEX 01 01:59:66
  TRACK 59 AUDIO
    TITLE "DISC1Track15_59"
    INDEX 01 02:00:23
  TRACK 60 AUDIO
    TITLE "DISC1Track15_60"
    INDEX 01 02:03:23
  TRACK 61 AUDIO
    TITLE "DISC1Track15_61"
    INDEX 01 02:05:71
  TRACK 62 AUDIO
    TITLE "DISC1Track15_62"
    INDEX 01 02:08:22
  TRACK 63 AUDIO
    TITLE "DISC1Track15_63"
    INDEX 01 02:08:55
  TRACK 64 AUDIO
    TITLE "DISC1Track15_64"
    INDEX 01 02:11:46
  TRACK 65 AUDIO
    TITLE "DISC1Track15_65"
    INDEX 01 02:14:31
  TRACK 66 AUDIO
    TITLE "DISC1Track15_66"
    INDEX 01 02:17:01
